<svg xmlns="http://www.w3.org/2000/svg" viewBox="0 0 512 512"><defs><style>.cls-1{fill:#f55b4b;}.cls-2{fill:#a65c3b;}.cls-3{fill:#9e4830;}.cls-4{fill:#fcc8bc;}.cls-5{fill:#fab3a7;}.cls-6{fill:#f58d89;}.cls-7{fill:#d54545;}.cls-8{fill:#c11e1e;}.cls-9{fill:#b7694b;}.cls-10{fill:#3e436d;}.cls-11{fill:#fff;}.cls-12{fill:#e2e2e2;}.cls-13{fill:#366fca;}.cls-14{fill:#2e61aa;}.cls-15{fill:#db1b1b;}.cls-16{fill:#c11a1a;}.cls-17{fill:#ead8b0;}.cls-18{fill:#fceabe;}.cls-19{fill:#e5e5e5;}.cls-20{fill:#f6d372;}.cls-21{fill:#e0b95a;}.cls-22{fill:#f9e1aa;}</style></defs><title>Cinema</title><g id="BULINE"><circle class="cls-1" cx="256" cy="256" r="256"/></g><g id="Icons"><path class="cls-2" d="M380.39,240a6.63,6.63,0,0,1-12.15,2.44l-5.68-9s5.52,54.42-23,79.75a6.68,6.68,0,0,1-8.91,0l-11.33-10.25s-32.94,46-87.39,56.73a232.61,232.61,0,0,1-23-8.88c-47.31-21.41-51.6-46-51.6-46l-1.47,9.58A6.63,6.63,0,0,1,144.63,318C108,281.13,103.4,239.7,103.4,239.7l-.27.41A6.64,6.64,0,0,1,91,236.84c-6-92.62,34.63-156.32,34.63-156.32q3-4.11,6.11-7.78C180.61,15.25,254.52,37,254.52,37S330-13.24,371.1,108C371.1,108,392,168.25,380.39,240Z"/><path class="cls-3" d="M209,350.74c-47.31-21.41-51.6-46-51.6-46l-1.47,9.58A6.63,6.63,0,0,1,144.63,318C108,281.13,103.4,239.7,103.4,239.7l-.27.41A6.64,6.64,0,0,1,91,236.84c-6-92.62,34.63-156.32,34.63-156.32q3-4.11,6.11-7.78C129.11,133.32,136.74,244.08,209,350.74Z"/><path class="cls-4" d="M375.86,481.05c-3.57,2.31-7.21,4.54-10.9,6.66a256.22,256.22,0,0,1-264.23-28.17c8.41-49.17,26.6-98.41,74.43-121.17l.1,0a46.48,46.48,0,0,1,4.68-1.62c10.31-3,24.06-4.4,31.11-11.45,9.2-10.63-1.66-26.91,2.44-38.47,2.32-6.51,9.56-6.77,16.54-7.74,7.59-1.06,28.68-4.72,35.07.16,10.12,7.74-2.83,29.34,2.56,40,5.69,11.29,21.46,14.24,32.33,19.39.58.27,1.16.56,1.71.85a118.9,118.9,0,0,1,39.4,32.86C364.73,403.28,370.89,443.49,375.86,481.05Z"/><path class="cls-4" d="M330,144.53v62.56c0,46.68-37.15,61.62-64.23,85.36a41.67,41.67,0,0,1-55.51,0C183.19,268.71,146,253.77,146,207.09V144.53c0-45.9,34.19-83.33,77-85.17,1.1-.06,2.21-.08,3.33-.08h23.29C294,59.28,330,97.44,330,144.53Z"/><path class="cls-5" d="M182.75,207.1V144.53c0-44.68,32.39-81.34,73.62-84.95-2.21-.21-4.44-.3-6.71-.3H226.38c-44.37,0-80.33,38.17-80.33,85.25v31a18.41,18.41,0,1,0,0,36.81h.17c2.67,42.61,38,57.33,64,80.14a41.51,41.51,0,0,0,46.11,6.29,42.84,42.84,0,0,1-9.41-6.29C219.89,268.72,182.75,253.76,182.75,207.1Z"/><circle class="cls-4" cx="330" cy="193.91" r="18.41"/><rect class="cls-5" x="223.95" y="212.31" width="26.74" height="10.14" rx="4.65"/><path class="cls-6" d="M146.57,186.58a7.33,7.33,0,0,0,0,14.65Z"/><path class="cls-5" d="M330,201.23a7.33,7.33,0,0,0,0-14.65Z"/><path class="cls-7" d="M238,240.92c-14-2.27-26.16,6.81-26.16,6.81C211.86,255,223.57,262,238,262h0c14.45,0,26.16-7,26.16-14.24C264.18,247.73,252,238.65,238,240.92Z"/><path class="cls-8" d="M256.64,248.35H225a4.69,4.69,0,0,1,2.2-2.71,39.6,39.6,0,0,1,16.83-5,28.32,28.32,0,0,0-6,.33c-14-2.27-26.17,6.81-26.17,6.81C211.86,255,223.58,262,238,262a44.6,44.6,0,0,0,6-.41c-8.4-1.16-15.25-4.67-18.37-8.87a4.84,4.84,0,0,1-.69-1.43h31.68a1.46,1.46,0,1,0,0-2.91Z"/><path class="cls-2" d="M333.41,143.38v32.06l0,.06s-20.83-23.93-27.56-53.86c0,0-4.79,3-5,14a3.23,3.23,0,0,1-5.28,2.45c-11.95-9.85-38.39-34.66-36.72-60.22,0,0-12.77,36.94-60.85,61.22a3.23,3.23,0,0,1-4.54-3.82c2.48-8.27,4.67-22.06-3.14-33,0,0-4.24,51.29-47.65,73.33V143.38c0-47.59,35.45-86.4,79.85-88.31,1.15-.07,2.3-.09,3.46-.09H250.1C296.1,55,333.41,94.56,333.41,143.38Z"/><path class="cls-9" d="M301.63,52.35c.89,10.15-.14,24.86-10.5,35.94a2.6,2.6,0,0,0,2.05,4.39c6.87-.49,16.95-1.91,22.51-6.08a2.61,2.61,0,0,1,4,1.09c1.4,3.63,3.13,9.53,2.38,15.16a2.6,2.6,0,0,0,4.62,1.91c5-6.08,9.15-16.91,2.95-35a2.6,2.6,0,0,0-4.55-.68l-1,1.31a2.6,2.6,0,0,1-4.23-.07L306.35,50.65A2.59,2.59,0,0,0,301.63,52.35Z"/><path class="cls-10" d="M375.86,481.05c-3.57,2.31-7.21,4.54-10.9,6.66a256.22,256.22,0,0,1-264.23-28.17c8.41-49.17,26.6-98.41,74.43-121.17l.1,0a46.48,46.48,0,0,1,4.68-1.62A61,61,0,0,0,300,338.62c.58.27,1.16.56,1.71.85a118.9,118.9,0,0,1,39.4,32.86C364.73,403.28,370.89,443.49,375.86,481.05Z"/><path class="cls-11" d="M323.17,164.88v30.05a6.42,6.42,0,0,1-4.46,6.07,14.19,14.19,0,0,0-8.95,8.94,6.41,6.41,0,0,1-6.06,4.47H256.47a7.7,7.7,0,0,1-7.66-7h0a24.27,24.27,0,0,0-3.66-11.21c-1.9-2.79-4.36-4.45-7-4.45-5.3,0-9.82,6.63-10.67,15.66h0a7.7,7.7,0,0,1-7.66,7H172.59a6.42,6.42,0,0,1-6.06-4.47,14.19,14.19,0,0,0-8.95-8.94,6.42,6.42,0,0,1-4.46-6.07V164.88a6.12,6.12,0,0,1,6.12-6.12H317.06A6.12,6.12,0,0,1,323.17,164.88Z"/><path class="cls-12" d="M310,209.21c-.1.26-.2.53-.29.8a6.42,6.42,0,0,1-6.12,4.4H256.47a7.7,7.7,0,0,1-7.66-7,27.88,27.88,0,0,0-1.28-6.25,19.54,19.54,0,0,0-2.39-5c-1.89-2.79-4.35-4.45-7-4.45a7.06,7.06,0,0,0-4.14,1.43c2-3.77,4.86-6.1,8-6.1,2.65,0,5.1,1.66,7,4.44a20.06,20.06,0,0,1,2.39,5,29.29,29.29,0,0,1,1.28,6.25,7.69,7.69,0,0,0,7.66,7h47.15A6.52,6.52,0,0,0,310,209.21Z"/><rect class="cls-13" x="168.33" y="169.91" width="53.29" height="32.59" rx="7.48"/><path class="cls-14" d="M221.61,195.54a7.48,7.48,0,0,1-7.46,7H175.81a7.48,7.48,0,0,1-7.48-7.48V177.38a7.48,7.48,0,0,1,7-7.46,4.61,4.61,0,0,0,0,.53v17.63a7.48,7.48,0,0,0,7.47,7.48h38.35Z"/><rect class="cls-15" x="254.66" y="169.91" width="53.29" height="32.59" rx="7.48"/><path class="cls-16" d="M307.94,195.54a7.48,7.48,0,0,1-7.46,7H262.14a7.48,7.48,0,0,1-7.48-7.48V177.38a7.48,7.48,0,0,1,7-7.46c0,.17,0,.35,0,.53v17.63a7.48,7.48,0,0,0,7.48,7.48h38.35Z"/><path class="cls-17" d="M414.66,365.14a8.83,8.83,0,0,0,.12-1.37,8.67,8.67,0,0,0-8.67-8.67,8.68,8.68,0,0,0-8.68-8.68,8.58,8.58,0,0,0-5.14,1.71,4,4,0,0,0-6-2.84,6.51,6.51,0,0,0-10.65-3.3,8.66,8.66,0,0,0-13.47-3.16A8.66,8.66,0,0,0,345,340.25a6.46,6.46,0,0,0-3.86-1.28,6.55,6.55,0,0,0-5.3,2.72,4,4,0,0,0-5.4.15,6.52,6.52,0,0,0-11.62,1.68,6.52,6.52,0,0,0-9.38,5.86c0,.1,0,.19,0,.28a3.81,3.81,0,0,0-1.44-.28,4,4,0,0,0-4,4c0,.1,0,.2,0,.31a8.66,8.66,0,0,0-7,8.51,8.75,8.75,0,0,0,.4,2.62,6.52,6.52,0,1,0,3.35,12.29c7.56,10.15,28.41,17.44,52.94,17.44,25.75,0,47.43-8,54-19a6.52,6.52,0,1,0,7-10.46Z"/><path class="cls-18" d="M419.16,371.34a6.57,6.57,0,0,1-.3,2,6.52,6.52,0,0,0-4.2-4.26,8.94,8.94,0,0,0,.12-1.37,8.68,8.68,0,0,0-8.67-8.68,8.67,8.67,0,0,0-13.83-7,4,4,0,0,0-3.95-3.41,3.92,3.92,0,0,0-2.06.58,6.52,6.52,0,0,0-10.65-3.31,8.67,8.67,0,0,0-13.47-3.16A8.66,8.66,0,0,0,345,344.14a6.49,6.49,0,0,0-9.15,1.44,4,4,0,0,0-5.41.15,6.52,6.52,0,0,0-11.62,1.68,6.52,6.52,0,0,0-9.38,5.86c0,.1,0,.18,0,.27a4,4,0,0,0-1.44-.27,4,4,0,0,0-4,4c0,.11,0,.21,0,.31a8.68,8.68,0,0,0-6.79,6.57,8.3,8.3,0,0,1-.22-1.94,8.66,8.66,0,0,1,7-8.51c0-.11,0-.21,0-.31a4,4,0,0,1,4-4,4,4,0,0,1,1.44.27c0-.09,0-.17,0-.27a6.52,6.52,0,0,1,9.38-5.86,6.52,6.52,0,0,1,11.62-1.68,4,4,0,0,1,5.41-.15,6.49,6.49,0,0,1,9.15-1.44,8.66,8.66,0,0,1,17.11-1.42A8.66,8.66,0,0,1,375.62,342a6.52,6.52,0,0,1,10.65,3.31,4,4,0,0,1,6,2.84,8.66,8.66,0,0,1,13.83,7,8.67,8.67,0,0,1,8.67,8.67,8.83,8.83,0,0,1-.12,1.37A6.53,6.53,0,0,1,419.16,371.34Z"/><path class="cls-11" d="M415.19,383.31l-8.32,79.51q-8.79,6.45-18.15,12.12a254.78,254.78,0,0,1-79.16,31.45,5.19,5.19,0,0,1-2.4-3.86L294.69,383.31Z"/><path class="cls-19" d="M413.91,395.55H310.17l11.29,108q-5.9,1.56-11.89,2.84h0a5.2,5.2,0,0,1-2.4-3.87L294.69,383.31h120.5Z"/><path class="cls-20" d="M415.62,383.31l-8.28,79.17q-9,6.63-18.62,12.46l6.39-91.63Z"/><path class="cls-20" d="M347.74,383.31V495.07q-7.1,2.71-14.39,5l-7.06-116.79Z"/><path class="cls-20" d="M381.14,383.31l-6,99.32q-5,2.65-10.18,5.08c-1.75.82-3.5,1.63-5.27,2.41V383.31Z"/><polygon class="cls-21" points="415.62 383.31 414.35 395.55 394.25 395.55 395.11 383.31 415.62 383.31"/><polygon class="cls-21" points="347.74 383.31 347.74 395.55 327.03 395.55 326.29 383.31 347.74 383.31"/><polygon class="cls-21" points="381.14 383.31 380.41 395.55 359.69 395.55 359.69 383.31 381.14 383.31"/><path class="cls-20" d="M323.12,503.1c-.55.16-1.11.3-1.66.45q-5.9,1.56-11.89,2.84h0a5.19,5.19,0,0,1-2.4-3.86L294.69,383.31h20.08Z"/><path class="cls-21" d="M321.46,503.55q-5.9,1.56-11.9,2.84l-.1,0a5.18,5.18,0,0,1-2.73-3.89L294.26,383.31h20.51l.86,12.24a4.93,4.93,0,0,0-4.93,4.92,4.36,4.36,0,0,0,0,.51Z"/><rect class="cls-11" x="290.59" y="377.42" width="128.71" height="7.23" rx="3.62"/><path class="cls-18" d="M308.61,366.74l-.24-.16a6.93,6.93,0,0,0-9.56,2.23,7.13,7.13,0,0,0-.85,2,4.48,4.48,0,1,0,3.63,7.87,7,7,0,0,0,3.56.73,4.44,4.44,0,0,0,2.36,3,4.51,4.51,0,0,0,5.42-1.13,4.45,4.45,0,0,0,.94-3.85,2,2,0,0,1,.86-2.17,5.24,5.24,0,1,0-6.12-8.49Z"/><path class="cls-22" d="M313.74,379.82a4.46,4.46,0,0,1-.81,1.43,4.51,4.51,0,0,1-5.42,1.13,4.44,4.44,0,0,1-2.36-3,6.91,6.91,0,0,1-3.57-.72,4.48,4.48,0,0,1-7-5.23,4.73,4.73,0,0,1,.94-1.39,4.48,4.48,0,0,0,7.09,4.91,6.88,6.88,0,0,0,3.56.72,4.48,4.48,0,0,0,7.53,2.13Z"/><path class="cls-11" d="M326.81,366.36l-.27-.07a6.92,6.92,0,0,0-8.3,7.57,4.48,4.48,0,1,0,6.11,6.13,6.82,6.82,0,0,0,3.59-.55,4.45,4.45,0,0,0,3.25,2,4.47,4.47,0,0,0,4.25-6.87,2,2,0,0,1,.06-2.33,5.33,5.33,0,0,0,1.07-2.86,5.25,5.25,0,0,0-9.76-3Z"/><path class="cls-19" d="M336.15,376.86a4.62,4.62,0,0,1-.26,1.62,4.5,4.5,0,0,1-4.7,2.93,4.45,4.45,0,0,1-3.25-2,6.82,6.82,0,0,1-3.59.55A4.48,4.48,0,0,1,316,377.5a4.54,4.54,0,0,1,.4-1.63,4.48,4.48,0,0,0,8.35,2.15,7,7,0,0,0,3.59-.55,4.48,4.48,0,0,0,7.8-.61Z"/><path class="cls-18" d="M353.34,374.07l.16-.23A7,7,0,0,0,349,363.53a4.48,4.48,0,0,0-7.94-1.85,4.5,4.5,0,0,0,.16,5.67,6.85,6.85,0,0,0-.63,3.57,4.48,4.48,0,0,0,2.22,8.68,2,2,0,0,1,2.19.8,5.14,5.14,0,0,0,2.35,1.94,5.24,5.24,0,0,0,6-8.27Z"/><path class="cls-22" d="M340.39,379.52a4.42,4.42,0,0,1-1.45-.77,4.48,4.48,0,0,1,1.66-7.83,6.82,6.82,0,0,1,.64-3.58,4.48,4.48,0,0,1,6.46-6.18,4.48,4.48,0,0,0-4.73,7.21,7,7,0,0,0-.64,3.57,4.49,4.49,0,0,0-1.94,7.58Z"/><path class="cls-11" d="M367,378.75l.28,0a7,7,0,0,0,7.48-6.37,7.09,7.09,0,0,0-.17-2.17,4.48,4.48,0,1,0-6.83-5.33,6.85,6.85,0,0,0-3.49,1,4.48,4.48,0,0,0-6.84,5.79,2,2,0,0,1,.23,2.32,5.24,5.24,0,1,0,9.34,4.73Z"/><path class="cls-19" d="M356.45,369.48a4.47,4.47,0,0,1,4.36-5.13,4.47,4.47,0,0,1,3.47,1.56,6.88,6.88,0,0,1,3.5-1,4.48,4.48,0,0,1,8.58,1.45,4.59,4.59,0,0,1-.2,1.67,4.48,4.48,0,0,0-8.55-1.11,6.85,6.85,0,0,0-3.49,1,4.48,4.48,0,0,0-7.67,1.56Z"/><path class="cls-18" d="M381.38,366.49l-.26.1a7,7,0,0,0-3.55,9.16,6.68,6.68,0,0,0,1.18,1.83,4.48,4.48,0,1,0,8.53,1.44,6.9,6.9,0,0,0,2.61-2.53,4.48,4.48,0,0,0,3.26-8.34,2,2,0,0,1-1.31-1.93,5.16,5.16,0,0,0-.78-3,5.24,5.24,0,0,0-9.68,3.22Z"/><path class="cls-22" d="M395.07,369.63a4.31,4.31,0,0,1,.73,1.47,4.48,4.48,0,0,1-5.91,5.39,7,7,0,0,1-2.61,2.53,4.48,4.48,0,0,1-8.24,2.81,4.8,4.8,0,0,1-.62-1.56,4.52,4.52,0,0,0,4.88,1.6,4.48,4.48,0,0,0,3.17-4.69,7,7,0,0,0,2.61-2.53,4.48,4.48,0,0,0,6-5Z"/><path class="cls-11" d="M413.29,375.05l.19-.21a7,7,0,0,0-1-9.78,7.14,7.14,0,0,0-1.88-1.09,4.45,4.45,0,0,0-2.19-3.66,4.48,4.48,0,0,0-6.08,6.23,7,7,0,0,0-1.18,3.44,4.48,4.48,0,0,0,.87,8.92,2,2,0,0,1,2,1.13,5.14,5.14,0,0,0,2,2.27,5.24,5.24,0,0,0,7.18-7.25Z"/><path class="cls-19" d="M399.66,378.45a4.62,4.62,0,0,1-1.32-1,4.48,4.48,0,0,1,2.84-7.48,7,7,0,0,1,1.17-3.44,4.48,4.48,0,0,1,6.09-6.23,4.81,4.81,0,0,1,1.25,1.11,4.51,4.51,0,0,0-5.07.78,4.46,4.46,0,0,0-.7,5.62,7,7,0,0,0-1.19,3.44,4.45,4.45,0,0,0-3.25,2A4.49,4.49,0,0,0,399.66,378.45Z"/><path class="cls-11" d="M361.65,343.44l-.17-.22a7,7,0,0,0-11.22.72,4.48,4.48,0,1,0,.95,8.61,6.79,6.79,0,0,0,3.15,1.81,4.48,4.48,0,0,0,8.91.86,2,2,0,0,1,1.5-1.79,5.19,5.19,0,0,0,2.62-1.55,5.24,5.24,0,0,0-5.74-8.44Z"/><path class="cls-19" d="M362.38,357.47a4.34,4.34,0,0,1-1.22,1.11,4.48,4.48,0,0,1-6.8-4.22,6.88,6.88,0,0,1-3.15-1.81,4.48,4.48,0,0,1-4.95-7.16,4.3,4.3,0,0,1,1.33-1,4.48,4.48,0,0,0,5.17,6.89,7,7,0,0,0,3.15,1.82,4.48,4.48,0,0,0,6.47,4.39Z"/><path class="cls-11" d="M398.53,347.63l0-.28a7,7,0,0,0-6.66-7.23,7,7,0,0,0-2.16.26,4.44,4.44,0,0,0-3.94-1.61,4.48,4.48,0,0,0-1.12,8.64,6.9,6.9,0,0,0,1.13,3.45,4.48,4.48,0,0,0,6.05,6.6,2,2,0,0,1,2.31-.32,5.24,5.24,0,1,0,4.36-9.51Z"/><path class="cls-19" d="M389.68,358.54a4.36,4.36,0,0,1-1.65,0,4.47,4.47,0,0,1-2.22-7.68,6.9,6.9,0,0,1-1.13-3.46,4.48,4.48,0,0,1,1.12-8.63,4.62,4.62,0,0,1,1.67.13,4.48,4.48,0,0,0-.77,8.59,6.86,6.86,0,0,0,1.12,3.45,4.48,4.48,0,0,0,1.86,7.6Z"/><path class="cls-11" d="M319.1,343.52l-.26.11a7,7,0,0,0-3.19,9.3,7,7,0,0,0,1.25,1.78,4.48,4.48,0,1,0,8.59,1.1,6.85,6.85,0,0,0,2.5-2.63,4.44,4.44,0,0,0,3.77-.42,4.49,4.49,0,0,0,1.93-5.19,4.44,4.44,0,0,0-2.77-2.85,2,2,0,0,1-1.38-1.88,5.24,5.24,0,1,0-10.44.68Z"/><path class="cls-19" d="M332.9,346.12a4.42,4.42,0,0,1,.79,1.45,4.52,4.52,0,0,1-1.92,5.19,4.47,4.47,0,0,1-3.78.42,6.85,6.85,0,0,1-2.5,2.63,4.48,4.48,0,0,1-8.13,3.13,4.61,4.61,0,0,1-.68-1.53A4.48,4.48,0,0,0,324.6,354a7,7,0,0,0,2.51-2.63,4.47,4.47,0,0,0,5.79-5.25Z"/></g></svg>